<?xml version="1.0" encoding="UTF-8" standalone="no"?>
<!-- Created with Inkscape (http://www.inkscape.org/) -->

<svg
   xmlns:dc="http://purl.org/dc/elements/1.1/"
   xmlns:cc="http://creativecommons.org/ns#"
   xmlns:rdf="http://www.w3.org/1999/02/22-rdf-syntax-ns#"
   xmlns:svg="http://www.w3.org/2000/svg"
   xmlns="http://www.w3.org/2000/svg"
   xmlns:sodipodi="http://sodipodi.sourceforge.net/DTD/sodipodi-0.dtd"
   xmlns:inkscape="http://www.inkscape.org/namespaces/inkscape"
   width="191.15901"
   height="191.15901"
   id="svg2"
   version="1.1"
   inkscape:version="0.92.5 (2060ec1f9f, 2020-04-08)"
   sodipodi:docname="Flask_logo.svg">
  <defs
     id="defs4">
    <inkscape:perspective
       sodipodi:type="inkscape:persp3d"
       inkscape:vp_x="0 : 526.18109 : 1"
       inkscape:vp_y="0 : 1000 : 0"
       inkscape:vp_z="744.09448 : 526.18109 : 1"
       inkscape:persp3d-origin="372.04724 : 350.78739 : 1"
       id="perspective10" />
    <inkscape:perspective
       id="perspective2824"
       inkscape:persp3d-origin="0.5 : 0.33333333 : 1"
       inkscape:vp_z="1 : 0.5 : 1"
       inkscape:vp_y="0 : 1000 : 0"
       inkscape:vp_x="0 : 0.5 : 1"
       sodipodi:type="inkscape:persp3d" />
    <inkscape:perspective
       id="perspective2840"
       inkscape:persp3d-origin="0.5 : 0.33333333 : 1"
       inkscape:vp_z="1 : 0.5 : 1"
       inkscape:vp_y="0 : 1000 : 0"
       inkscape:vp_x="0 : 0.5 : 1"
       sodipodi:type="inkscape:persp3d" />
    <inkscape:perspective
       id="perspective2878"
       inkscape:persp3d-origin="0.5 : 0.33333333 : 1"
       inkscape:vp_z="1 : 0.5 : 1"
       inkscape:vp_y="0 : 1000 : 0"
       inkscape:vp_x="0 : 0.5 : 1"
       sodipodi:type="inkscape:persp3d" />
    <inkscape:perspective
       id="perspective2894"
       inkscape:persp3d-origin="0.5 : 0.33333333 : 1"
       inkscape:vp_z="1 : 0.5 : 1"
       inkscape:vp_y="0 : 1000 : 0"
       inkscape:vp_x="0 : 0.5 : 1"
       sodipodi:type="inkscape:persp3d" />
    <inkscape:perspective
       id="perspective2910"
       inkscape:persp3d-origin="0.5 : 0.33333333 : 1"
       inkscape:vp_z="1 : 0.5 : 1"
       inkscape:vp_y="0 : 1000 : 0"
       inkscape:vp_x="0 : 0.5 : 1"
       sodipodi:type="inkscape:persp3d" />
    <inkscape:perspective
       id="perspective2926"
       inkscape:persp3d-origin="0.5 : 0.33333333 : 1"
       inkscape:vp_z="1 : 0.5 : 1"
       inkscape:vp_y="0 : 1000 : 0"
       inkscape:vp_x="0 : 0.5 : 1"
       sodipodi:type="inkscape:persp3d" />
    <inkscape:perspective
       id="perspective2976"
       inkscape:persp3d-origin="0.5 : 0.33333333 : 1"
       inkscape:vp_z="1 : 0.5 : 1"
       inkscape:vp_y="0 : 1000 : 0"
       inkscape:vp_x="0 : 0.5 : 1"
       sodipodi:type="inkscape:persp3d" />
    <inkscape:perspective
       id="perspective3020"
       inkscape:persp3d-origin="0.5 : 0.33333333 : 1"
       inkscape:vp_z="1 : 0.5 : 1"
       inkscape:vp_y="0 : 1000 : 0"
       inkscape:vp_x="0 : 0.5 : 1"
       sodipodi:type="inkscape:persp3d" />
    <inkscape:perspective
       id="perspective3036"
       inkscape:persp3d-origin="0.5 : 0.33333333 : 1"
       inkscape:vp_z="1 : 0.5 : 1"
       inkscape:vp_y="0 : 1000 : 0"
       inkscape:vp_x="0 : 0.5 : 1"
       sodipodi:type="inkscape:persp3d" />
    <inkscape:perspective
       id="perspective3052"
       inkscape:persp3d-origin="0.5 : 0.33333333 : 1"
       inkscape:vp_z="1 : 0.5 : 1"
       inkscape:vp_y="0 : 1000 : 0"
       inkscape:vp_x="0 : 0.5 : 1"
       sodipodi:type="inkscape:persp3d" />
    <inkscape:perspective
       id="perspective3866"
       inkscape:persp3d-origin="0.5 : 0.33333333 : 1"
       inkscape:vp_z="1 : 0.5 : 1"
       inkscape:vp_y="0 : 1000 : 0"
       inkscape:vp_x="0 : 0.5 : 1"
       sodipodi:type="inkscape:persp3d" />
  </defs>
  <sodipodi:namedview
     id="base"
     pagecolor="#ffffff"
     bordercolor="#666666"
     borderopacity="1.0"
     inkscape:pageopacity="0.0"
     inkscape:pageshadow="2"
     inkscape:zoom="1.4"
     inkscape:cx="-114.44756"
     inkscape:cy="7.6195468"
     inkscape:document-units="px"
     inkscape:current-layer="layer1"
     showgrid="false"
     inkscape:window-width="1920"
     inkscape:window-height="1016"
     inkscape:window-x="0"
     inkscape:window-y="27"
     inkscape:window-maximized="1"
     inkscape:snap-page="true"
     inkscape:snap-bbox="true"
     inkscape:snap-bbox-edge-midpoints="true"
     inkscape:bbox-nodes="true" />
  <metadata
     id="metadata7">
    <rdf:RDF>
      <cc:Work
         rdf:about="">
        <dc:format>image/svg+xml</dc:format>
        <dc:type
           rdf:resource="http://purl.org/dc/dcmitype/StillImage" />
        <dc:title />
      </cc:Work>
    </rdf:RDF>
  </metadata>
  <g
     inkscape:label="Layer 1"
     inkscape:groupmode="layer"
     id="layer1"
     transform="translate(-39.820801,-19.871411)">
    <path
       style="fill:#000000;stroke-width:0.69052517"
       d="m 108.84589,161.42805 c -5.02856,-3.95511 -10.392664,-7.7472 -14.058124,-13.08691 -7.712807,-9.41646 -13.6513,-20.31867 -17.711098,-31.77556 -2.453871,-7.4498 -3.294279,-15.43691 -6.457643,-22.59885 -3.309195,-5.201756 0.567075,-10.888129 6.264942,-12.541608 2.536811,-0.486892 6.997318,-2.879668 1.613033,-1.169431 -4.827179,3.541615 -5.294345,-3.214811 -0.344449,-3.642637 3.378067,-0.449014 4.621612,-3.214426 3.466412,-5.703912 -3.626172,-2.364678 8.792963,-4.963502 2.544152,-8.491939 -6.509571,-7.023101 9.105501,-8.375066 5.253021,-0.398976 -0.92216,6.133287 10.911144,-1.124111 8.16554,5.958503 2.790614,3.401316 10.450114,0.774149 10.260084,5.545879 4.06519,0.27944 5.46038,3.699876 9.27651,3.962473 3.95505,1.786082 11.12492,3.193535 12.47075,7.650431 -3.92385,3.106504 -13.01011,-6.416825 -13.44663,2.182334 1.18535,12.702953 0.88336,25.788653 5.53101,37.885663 2.19831,7.3248 7.52755,13.09083 12.34044,18.79571 4.60494,5.58722 10.84253,9.52038 17.20019,12.83229 5.577,2.63023 11.58965,4.37468 17.66765,5.46927 2.46525,-1.88562 6.81758,-8.89589 10.66336,-5.93982 0.18246,3.32148 -7.63314,6.94332 -0.36769,6.57622 4.26619,-1.28699 7.22521,3.29936 10.73834,-0.83753 3.23663,3.83384 13.4528,-2.44953 11.14987,5.38689 -3.11408,2.00912 -7.65578,0.79508 -10.77499,3.55895 -5.14273,-2.56861 -9.23709,2.29836 -14.93046,1.68285 -6.32273,1.13248 -12.7551,1.58962 -19.16534,1.59955 -10.51636,-0.8309 -21.25546,-1.18113 -31.25986,-4.84259 -5.63583,-1.63765 -11.13575,-4.84671 -16.08902,-8.05725 z m 8.88156,3.84823 c 5.50321,2.3799 10.88436,4.88815 16.9155,5.64475 9.56848,1.33083 19.44969,3.37779 29.05247,1.51057 -4.3461,-1.96247 -8.83926,0.76454 -13.16898,-1.40329 -5.19298,1.11742 -10.76563,-0.28465 -16.04486,-0.97494 -6.00339,-2.67412 -12.48207,-4.51292 -18.104,-7.98398 -7.02482,-2.56585 3.63315,3.29052 5.53024,3.76484 4.3914,2.49258 -4.82915,-1.27778 -6.12903,-2.31396 -3.67807,-2.06322 -4.1468,-1.6321 -0.36422,0.46324 0.76187,0.44592 1.51473,0.91305 2.31288,1.29277 z m -10.4716,-7.40029 c 5.33277,1.97526 -0.0235,-3.75012 -2.46721,-3.41744 -1.08267,-1.87833 -4.13645,-3.06492 -1.9823,-4.07391 -3.874904,1.34521 -4.059134,-5.11551 -5.880524,-4.19245 -4.09931,-1.29442 -1.59545,-5.87983 -6.47845,-8.69573 -0.44573,-2.96716 -4.851476,-5.54073 -6.256715,-10.01624 -0.620635,-2.29146 -4.977538,-8.87175 -2.301085,-2.74779 2.278867,5.89534 6.288349,10.94399 9.62501,15.98687 2.59091,4.80141 5.65022,9.81945 10.368764,12.81469 1.59058,1.5258 3.12632,3.86371 5.37251,4.342 z M 91.893246,141.00907 c 0.18614,-0.80533 0.97532,1.74304 0,0 z m 21.749074,19.23476 c 1.18089,-0.52878 -1.69809,-0.66619 0,0 z m 2.89487,1.05598 c -0.29981,-1.45811 -1.3215,0.81533 0,0 z m 3.62353,1.51149 c 1.72512,-1.64255 -2.65859,-1.03566 0,0 z m 6.2105,3.46143 c 1.0483,-1.54947 -3.35507,-0.58475 0,0 z m -11.92585,-8.31346 c 2.67945,-1.73338 -3.46082,-0.024 0,0 z m 2.71832,1.35545 c -0.076,-0.91638 -0.96878,0.41039 0,0 z m 13.5859,8.47969 c 2.184,1.3783 12.75373,3.02098 6.13516,0.56518 -1.10745,0.23347 -12.27245,-3.15802 -6.13516,-0.56518 z M 109.18151,150.9966 c -0.21233,-0.91905 -3.39002,-1.01467 0,0 z m 6.32473,3.68611 c 1.64602,-1.14803 -3.41642,-0.8855 0,0 z m 5.31999,3.26191 c 2.36205,-0.89052 -3.83177,-0.89471 0,0 z m -14.21832,-9.75098 c 2.56279,1.96538 10.33556,0.25185 3.92479,-1.17324 -2.91783,-1.55534 -9.49396,-2.61996 -5.01154,0.93788 l 1.08674,0.23538 z m 17.82157,10.87726 c 1.06751,-1.81876 -4.47666,-1.03862 0,0 z m -5.41544,-4.30393 c 6.26666,1.77271 -5.26968,-3.96292 -1.54616,-0.65231 l 0.82527,0.37345 0.7209,0.27891 z m 10.8575,6.27535 c 5.93489,0.0566 -5.36057,-0.81817 0,1e-5 z m -25.54716,-16.28238 c -0.23181,-1.10549 -1.46458,0.0927 0,0 z m 35.58649,21.91383 c 0.15826,-1.9966 -1.93683,1.48571 0,0 z m -25.4584,-15.71152 c -0.35898,-1.05133 -1.85439,-0.0429 0,0 z m -9.56524,-6.89592 c 3.40721,-0.2046 -4.66472,-1.50133 0,0 z m -11.331314,-7.32444 c -0.42409,-1.63333 -3.70758,-2.93604 0,0 z m 29.747364,18.87856 c -0.62405,-0.71173 -0.29355,0.15568 0,0 z m 18.51579,11.36242 c -0.0594,-1.0876 -1.00843,0.41166 0,0 z m -20.15444,-13.05458 c 0.33329,-1.40129 -2.90532,-0.42427 0,0 z m -13.79397,-8.74201 c 2.53477,-0.27141 -4.06059,-1.71362 0,0 z m 23.33378,14.49905 c 3.95009,-1.56492 -3.84996,-0.76397 0,0 z m -12.13724,-8.23897 c 4.55248,0.58696 -5.41677,-3.09649 -0.99885,-0.32959 l 0.99884,0.32962 z m 15.82198,9.72853 c 4.25027,-2.54096 2.84902,5.9501 7.21083,0.71732 4.30256,-3.14149 -3.71562,3.88387 1.58709,0.56013 3.83489,-2.56487 9.49916,1.21584 13.0775,2.44943 2.5733,-0.12642 5.07493,2.22512 7.71298,0.79451 5.07826,-1.3678 -9.93043,-2.02869 -5.99614,-4.45547 -4.64663,1.35237 -8.07978,-1.61227 -10.36625,-4.5886 -5.21217,-1.20357 -11.23863,-3.86832 -13.8399,-8.48092 -1.06058,-1.73185 1.53216,0.24398 -0.91554,-2.58697 -3.14074,-2.79349 -4.70902,-5.96452 -6.8174,-9.3602 -2.51873,-1.34368 -2.81216,-5.29872 -3.06678,-0.13259 0.02,-3.26042 -3.04103,-5.4549 -3.78815,-4.54269 -0.0134,-3.13996 3.27583,-1.56602 0.97327,-3.88922 -0.49561,-3.25447 -2.12741,-6.64569 -2.61789,-10.32011 -0.76206,-1.77121 -0.10732,-5.56469 -2.60095,-1.55509 -0.90849,4.23753 -0.30153,-5.20746 1.11126,-2.09287 1.85436,-3.17815 -0.66573,-2.80436 -0.76897,-2.36306 1.20794,-2.68153 0.76454,-6.48512 -0.31518,-5.03408 0.64366,-2.8421 1.01685,-10.45975 -0.96336,-9.109809 1.20036,-2.971991 2.27644,-13.599255 -2.93446,-9.547425 -2.11187,0.02965 -5.76902,0.766618 -7.49774,1.626355 5.42028,2.987804 -0.5452,1.078999 -2.75161,0.604126 -0.2875,2.764616 -2.472904,1.568933 -5.203194,1.596038 4.360854,0.539534 -2.12354,4.460075 -4.62523,2.937153 -3.248994,1.552822 2.80396,5.428934 0.0652,6.627382 0.33659,1.80681 -4.97746,-0.65249 -4.56011,3.52009 -3.154139,-1.32688 -0.434313,4.94966 1.143698,2.82688 5.364612,1.45191 3.776552,4.76208 3.913172,7.90647 -0.87409,1.83223 -4.315436,-4.30675 -0.76644,-4.02243 -2.79989,-4.54831 -3.097168,-1.64401 -5.423778,0.46894 -0.541273,0.15345 5.934648,3.00638 1.870673,4.41708 3.575455,0.55169 3.677185,3.68056 4.405055,5.66048 2.14905,2.23835 1.70921,-2.47161 4.28062,0.21837 -1.62722,-2.39647 -8.619022,-6.75223 -2.98968,-5.35523 -0.0301,-2.41195 -1.01812,-4.35688 0.70656,-4.30969 1.70792,-3.09305 -1.78873,7.62616 2.06103,3.69516 1.06567,-0.46533 1.32963,-3.09697 3.24515,0.24851 2.782194,2.73699 1.004944,4.72027 -2.91965,2.21416 0.70214,2.38194 5.250104,3.23315 4.395434,6.95805 0.90604,3.27612 2.17367,2.06946 3.27861,1.88006 0.86677,3.18314 1.35897,0.84251 1.40009,-0.67226 3.96869,0.84958 3.03909,3.19556 4.28087,4.83461 2.73477,1.23439 -3.91437,-8.36719 0.78075,-2.88714 4.93973,4.45983 1.85254,6.32151 -2.58039,5.60703 2.8057,-0.22665 3.71048,3.79309 7.21992,3.65187 3.20028,1.52245 5.36702,7.36991 -0.14924,4.93573 -1.91327,-1.72507 -8.68386,-3.85319 -3.15384,-0.57191 5.10751,2.36521 9.16407,3.78015 14.09007,6.74908 3.52537,2.51672 5.04846,5.39927 6.38465,5.96987 -2.96294,1.41521 -8.92911,-1.13007 -4.49887,-1.91011 -2.76326,-0.50335 -5.87125,-1.90073 -3.22449,1.54215 2.2506,1.8791 7.97355,1.68003 8.99948,1.89295 -0.86961,1.91613 -2.36208,2.06851 0.0356,2.21712 -2.67491,1.42551 0.85775,1.64624 1.10563,2.46077 z m -5.47,-15.447 c -1.62744,-1.70197 -2.04823,-4.88984 -0.289,-2.11594 0.90216,0.36228 2.89001,5.20951 0.28903,2.11594 z m 17.81371,11.31559 c 1.0151,-0.0657 0.0295,0.77119 0,0 z M 126.8495,141.55473 c -0.0624,-2.57315 0.58867,1.98471 0,0 z m -1.77045,-2.38207 c -2.04703,-3.95524 2.58063,1.12012 0,0 z m -21.4551,-14.80828 c 1.20262,-0.32072 0.59167,2.05683 0,0 z m 17.07551,9.25551 c 0.73857,-2.77352 0.86794,2.32716 0,0 z m -12.06333,-8.38814 c -0.85041,-1.53047 1.7788,1.43536 0,0 z m 10.3529,3.31879 c -1.93934,-4.34495 1.37301,-2.37333 0.42906,0.71209 z m -17.85365,-11.90659 c -0.86704,-1.42546 -2.301294,-5.60799 -1.839554,-6.88483 0.41772,2.07945 4.422074,8.94891 1.964254,2.84563 -2.716104,-5.11615 3.24671,1.66065 3.86007,2.93674 0.28562,1.26944 -1.67576,-0.34681 -0.34677,2.62971 -2.42362,-3.38886 -1.43075,1.87193 -3.638,-1.52725 z m -5.517784,-3.80211 c 0.22714,-3.31439 1.26315,2.27274 0,0 z m 2.48195,0.85437 c 1.18437,-2.50165 2.008214,3.48751 0,0 z m -5.97039,-4.61856 c -2.05429,-2.04134 -3.54088,-3.92309 0.0961,-1.26693 1.40141,0.0547 -3.11358,-4.27922 0.3375,-1.37625 3.62892,0.66167 1.79198,5.95008 -0.43361,2.64318 z m 3.13617,-0.082 c 1.19298,-1.1822 0.63333,1.16374 0,0 z m 1.92973,0.61864 c -1.80861,-3.39007 2.19504,1.42125 0,0 z m -3.83619,-3.66606 c -5.971961,-5.31463 7.504154,2.77902 0.97565,0.98531 l -0.97568,-0.98526 z m 17.110584,9.94161 c -2.58429,-1.54953 -0.68485,-10.90855 0.19646,-4.50765 2.51234,-0.81271 -0.13871,3.30574 1.73514,3.26763 -0.29532,2.59848 -1.13363,3.53268 -1.9316,1.24002 z m 6.32881,3.74047 c 0.25345,-2.82054 0.53342,1.92837 0,0 z m -1.09931,-1.08617 c 0.28455,-1.20494 0.0294,1.41894 0,0 z M 94.530366,104.20183 c -3.83659,-5.29333 11.150134,5.35442 2.45728,1.34259 -0.90834,-0.23757 -2.00129,-0.3224 -2.45728,-1.34259 z m 12.187164,6.46158 c -0.36307,-4.45707 0.81079,0.7388 -1.3e-4,-1e-5 z m 9.25287,5.93565 c 0.71606,-2.53884 0.0534,1.67951 0,0 z M 95.118086,102.18163 c 2.28023,-0.48771 9.449634,4.00462 2.86584,1.28322 -0.73154,-0.80984 -2.29103,-0.4419 -2.86584,-1.28322 z m 19.581054,9.75927 c 0.24372,-4.55747 1.36128,-2.72228 0.008,0.65237 l -0.008,-0.65236 -3e-5,-1e-5 z M 96.815456,100.59578 c 0.92907,-1.362833 -2.4663,-6.161606 0.48944,-1.721345 1.27716,1.014799 3.697844,1.700045 1.5606,2.126965 3.361304,2.96523 -0.81982,0.80351 -2.05004,-0.40562 z m 16.915194,9.92157 c 0.64185,-5.19166 0.56603,3.04166 0,0 z M 94.875076,95.800631 c 0.70965,-0.303283 0.37478,0.94556 0,0 z m 4.41219,2.626131 c 1.135514,-2.382672 2.094724,2.657348 0,0 z m 12.445724,6.923398 c -0.012,-0.91509 0.2348,1.33109 0,0 z m -0.72094,-1.59607 c -1.72742,-4.261682 1.60681,2.25635 0,0 z m -1.06065,-2.79412 c -0.28995,-1.760976 0.98547,2.21234 -5e-5,-1e-5 z m 1.72616,-2.805966 c -1.18538,-2.088923 1.4969,-9.205441 1.79621,-4.791842 -1.25113,3.438992 -0.36093,5.362831 0.51188,0.750178 1.6118,-3.6302 -0.34818,7.16355 -2.30812,4.041683 z m 1.77388,-10.583437 c 0.51675,-0.634537 0.11469,0.764469 0,0 z m -2.96236,58.373023 c -0.70265,-0.6132 0.0882,0.39018 0,0 z m 6.10267,3.08709 c 3.39461,0.871 3.37726,-0.52816 0.30923,-0.94383 -1.65022,-1.53514 -6.85724,-3.16346 -2.19669,-0.19049 0.30866,0.78187 1.28399,0.76365 1.88746,1.13432 z m -12.05256,-8.00524 c 1.87011,1.39456 7.04419,3.95239 2.66418,0.53079 1.47674,-1.71573 -2.82656,-2.62898 -1.39906,-3.77666 -3.6309,-2.22181 -2.86427,-2.02416 -0.32048,-1.95426 -4.36369,-1.95048 0.62988,-1.80457 0.39475,-2.804 -1.68261,-0.33232 -8.357484,-2.96693 -4.43068,0.21642 -3.991854,-2.03533 -0.95127,0.75819 -2.157814,0.46285 -4.08193,-1.11297 3.635204,3.10891 -0.6483,2.06086 2.341804,1.85578 6.303334,4.75353 0.99007,1.9639 -0.70007,1.00771 3.802224,2.53517 4.907334,3.3001 z m 6.38266,3.66678 c 7.76065,2.50082 -3.8048,-3.0553 0,0 z m 32.67316,19.79343 c 0.1001,-1.53963 -1.06067,1.31338 0,0 z m 3.35819,1.41336 c 1.79051,-1.73498 0.0732,2.76363 2.96688,-0.42473 0.0313,-2.28249 -0.0891,-3.63067 -3.32531,-0.858 -0.89213,0.49475 -1.2904,2.59836 0.35843,1.28273 z M 93.645676,132.42089 c -0.5499,-2.16163 -3.85448,-2.15042 0,0 z m 3.58592,2.34981 c -1.33161,-2.20787 -4.75118,-1.99885 0,0 z m 20.400444,12.30307 c 1.99175,1.76912 9.14781,1.29808 2.41913,0.2177 -0.99658,-1.47348 -6.32809,-1.11886 -2.41913,-0.2177 z m 28.04386,17.31943 c 3.06547,-2.57229 -2.9701,1.14753 0,0 z m 6.37547,4.38119 c 0.0191,-0.82547 -1.32133,0.36141 0,0 z m 0.01,-1.15566 c 3.39463,-3.59671 -3.28929,0.21273 -3e-5,0 z M 84.825885,125.03711 c -2.893262,-4.12813 -1.798532,-5.9837 -4.588634,-9.35438 -0.528192,-2.57759 -4.786494,-8.42666 -2.202485,-2.23003 2.366803,3.62412 3.070113,9.23531 6.791119,11.58441 z m 66.170505,41.43826 c 6.24531,-4.03664 -2.56357,-1.75836 0,0 z m 4.76746,1.8676 c 3.12747,-2.68522 -1.97829,-0.56163 0,0 z M 92.582766,127.85791 c 0.89506,-1.3316 -2.31163,-0.17033 0,0 z m 62.185654,39.20991 c 3.02813,-1.95243 -0.69768,-1.65267 -0.54885,0.17956 l 0.54886,-0.17956 z M 113.6726,141.165 c -0.10409,-1.31839 -1.59907,0.1119 0,0 z m 2.53972,1.46135 c -0.80715,-1.63184 -1.24099,0.25633 0,0 z m 43.41504,25.7609 c 3.87941,-2.79858 -2.35166,-0.53581 -0.81432,0.53022 z m -1.48554,-0.718 c 3.16028,-2.64821 -3.3365,1.17357 0,0 z m 7.59,5.05452 c 2.12185,-1.42121 -2.57784,-0.45971 0,0 z M 94.528766,126.89768 c 2.84425,0.63726 11.366324,7.00462 6.338664,0.44036 -2.574974,-0.76223 -1.030694,-7.05652 -3.657174,-5.94251 1.76289,2.94502 1.45042,4.19851 -2.25087,2.34185 -4.65193,-2.27082 -2.61425,1.12534 -1.7051,2.06134 -1.23893,0.28154 1.63877,1.07528 1.27448,1.09896 z M 81.570457,116.66392 c 0.509198,-2.10604 -4.688537,-11.58619 -2.454447,-4.75024 0.806438,1.43197 0.724446,4.14583 2.454447,4.75024 z m 23.784073,14.66339 c -1.4646,-1.22484 -0.0696,-0.17334 0,0 z m 3.60661,0.83932 c -0.002,-2.23094 -3.98658,-0.90594 0,0 z m 31.25419,19.7029 c -0.5961,-1.52426 -2.35627,-0.0354 5e-5,2e-5 z m 1.50086,1.09634 c -0.22157,-0.85312 -0.86591,0.16467 0,0 z m 12.38813,7.803 c 1.19147,-0.88023 -1.48683,-0.11241 0,0 z M 88.043224,118.31638 c 3.407912,-1.3194 -3.651324,-0.94083 0,0 z m 49.420706,31.13534 c -0.0379,-2.20622 -2.17255,0.54734 0,0 z M 86.696766,115.17873 c 2.18908,-0.73944 -2.025078,-0.48703 0,0 z m 6.35389,3.07785 c -0.0397,-0.72514 -0.67211,0.27447 0,0 z m 77.498614,47.5232 c 2.81492,-0.57072 9.2296,1.43276 10.2664,-0.74636 -3.41841,-0.083 -11.82686,-2.41175 -12.22469,0.55572 l 0.74831,0.11789 1.20998,0.0727 z M 95.070076,118.76549 c 0.0489,-2.23561 -1.74334,-0.0835 0,0 z m -16.705984,-11.5886 c -0.758682,-4.25945 -2.88556,-0.64465 0,0 z m 3.983774,1.00136 c 0.04894,-1.36773 -3.646361,-1.23069 0,0 z m 2.276604,1.11812 c -0.658083,-0.53307 -0.515103,0.6734 0,0 z m 14.324746,9.18933 c 0.67438,-0.61952 -1.59657,-0.45888 0,0 z M 83.108142,106.77464 c -0.385053,-3.21713 -4.614088,-0.48202 0,0 z m -8.167368,-5.29944 c -0.116159,-1.48476 -0.795916,0.56009 0,0 z m 1.214866,-0.91748 c -0.198201,-1.760554 -1.043049,0.224 0,0 z m 6.712452,4.00673 c 2.838394,-1.11495 -5.170137,-2.30624 -0.579968,-0.21065 z m 89.835668,55.49 c 1.81672,-1.66561 -2.30893,-0.51497 0,0 z m 10.85277,5.62565 c 0.72804,-2.15347 -1.83301,0.28352 0,0 z M 83.554089,101.04623 c 0.29901,-2.083158 -2.250257,0.41364 0,0 z m -9.550187,-6.398541 c -0.513036,-2.941023 -0.442862,-8.103358 4.464337,-6.358758 -6.550296,1.300493 4.533532,8.141357 3.133849,2.740254 2.754247,0.134855 5.38794,-1.627764 3.942545,1.047114 5.426673,-0.599346 9.188903,-5.305036 14.430713,-4.645632 4.083114,-0.540331 8.547444,-0.950131 12.947524,-2.593721 3.6177,-0.260625 7.10023,-4.155623 5.11727,-6.46427 -4.9335,-0.417432 -10.09783,0.199833 -15.55071,1.283681 -6.042484,1.256146 -11.531094,3.642733 -17.627817,4.667167 -5.942584,0.798275 1.195298,2.199437 -0.506897,2.511597 -3.100928,1.075932 3.698099,1.801478 -0.402011,2.935718 -2.532152,-0.481461 -5.167797,-1.351485 -4.086175,-4.019908 -5.692474,0.738672 -10.694525,3.101237 -6.197126,8.894065 l 0.334492,0.0025 6e-6,-1.77e-4 z m 13.716792,-6.985905 c 1.334682,-4.916859 7.150542,4.045976 2.187622,0.653082 -0.59279,-0.443633 -1.567701,-0.805558 -2.187622,-0.653082 z m 0.259664,-2.383829 c 1.926328,-1.435089 1.024028,0.804573 0,0 z m 2.445988,0.03882 c 0.1739,-2.262492 5.5993,1.19775 0.89459,0.814474 z m 3.34589,-1.345277 c 1.22187,-1.427684 0.35122,1.269918 0,0 z m 0.85595,-0.57317 c 2.03455,-2.444608 11.521844,-1.560181 4.57747,-0.238362 -1.86134,-1.401326 -3.28814,0.826265 -4.57747,0.238362 z m 12.381134,-1.908532 c -0.3095,-6.677531 6.15104,2.372974 0,0 z m 3.51307,-0.01923 c 1.28439,-3.365554 4.98426,-1.350511 0.59436,-0.676305 0.0953,0.358145 -0.12873,1.737481 -0.59436,0.676305 z M 82.168778,99.318745 c 3.837615,-2.350004 -4.07406,-2.038805 0,0 z m 2.837516,0.788485 c 1.345497,-1.430686 -2.923585,-0.580295 0,0 z m -8.360645,-5.933637 c 2.19281,-1.684477 -2.594884,-0.640442 0,0 z M 189.96248,165.0646 c 0.0634,-1.95431 -1.67603,0.88068 0,0 z m -11.51442,-7.85773 c 0.32743,-2.25004 -1.47969,0.19617 0,0 z m 14.68072,8.61549 c 3.06589,0.0103 9.28939,-0.95212 2.61859,-0.94907 -1.0468,0.16325 -6.09949,0.12824 -2.61858,0.94905 z M 87.50223,98.728104 c 2.481236,-0.170426 3.882036,-2.736985 -0.479869,-2.589453 -6.760205,-0.699875 5.964415,2.314729 -0.867228,1.452748 -0.917963,0.6079 1.293771,1.3049 1.347097,1.136705 z m 2.185246,1.106048 c -0.25907,-1.593085 -0.76728,0.846308 0,0 z m 2.59216,-6.912089 c 1.07672,-1.335514 -1.48994,-0.357038 0,0 z M 84.02778,79.128653 c 4.428256,-1.506471 10.483826,-3.199263 12.574696,0.741751 -2.12792,-2.56111 -0.85875,-5.082374 1.15108,-1.337829 2.841904,3.788683 4.264624,-1.723197 2.416204,-2.993993 2.10643,2.61726 4.50225,3.854015 1.41035,0.165425 3.35988,-4.041595 -6.727594,0.529241 -9.020404,0.483212 -1.10316,0.495149 -11.389231,2.623229 -8.531926,2.941434 z m 2.595207,-4.970286 c 2.525479,-1.906136 8.734429,1.133835 4.750179,-1.894364 -0.38954,-0.344083 -8.725531,2.296324 -4.750179,1.894364 z m 9.207109,0.380116 c 2.95572,0.07542 -1.27493,-3.970719 2.24718,-2.137286 -0.57845,-1.88971 -4.10072,-2.243485 -5.82273,-2.998475 -0.97396,1.727731 1.98248,5.158984 3.57555,5.135761 z m -7.592673,-8.357749 c 1.022533,-1.386164 -1.792058,0.702747 0,0 z m 3.763073,0.900688 c 4.76315,-0.631762 -1.21414,-2.051233 -0.95979,-0.05077 l 0.95979,0.05077 v -6e-6 z m -7.026429,-5.498014 c -3.353788,-4.378071 6.307249,0.73594 2.899799,-3.848053 -2.867926,-2.283735 -5.623842,2.569979 -2.899799,3.848053 z m 43.040523,23.182864 c 1.53823,-2.726876 -6.35074,-3.675673 -1.03641,-0.966444 0.48929,0.163503 0.37856,1.155041 1.03641,0.966444 z"
       id="path2900"
       inkscape:connector-curvature="0" />
  </g>
</svg>
