<?xml version="1.0" encoding="UTF-8" standalone="no"?>
<!-- Generator: Adobe Illustrator 14.0.0, SVG Export Plug-In . SVG Version: 6.00 Build 43363)  -->

<svg
   xmlns:dc="http://purl.org/dc/elements/1.1/"
   xmlns:cc="http://creativecommons.org/ns#"
   xmlns:rdf="http://www.w3.org/1999/02/22-rdf-syntax-ns#"
   xmlns:svg="http://www.w3.org/2000/svg"
   xmlns="http://www.w3.org/2000/svg"
   xmlns:sodipodi="http://sodipodi.sourceforge.net/DTD/sodipodi-0.dtd"
   xmlns:inkscape="http://www.inkscape.org/namespaces/inkscape"
   version="1.1"
   id="Layer_1"
   x="0px"
   y="0px"
   width="64.109749mm"
   height="64.109749mm"
   viewBox="0 0 242.30456 242.30457"
   enable-background="new 0 0 792 612"
   xml:space="preserve"
   inkscape:version="0.92.5 (2060ec1f9f, 2020-04-08)"
   sodipodi:docname="scikit-learn.svg"><metadata
   id="metadata35"><rdf:RDF><cc:Work
       rdf:about=""><dc:format>image/svg+xml</dc:format><dc:type
         rdf:resource="http://purl.org/dc/dcmitype/StillImage" /><dc:title /></cc:Work></rdf:RDF></metadata><defs
   id="defs33" /><sodipodi:namedview
   pagecolor="#ffffff"
   bordercolor="#666666"
   borderopacity="1"
   objecttolerance="10"
   gridtolerance="10"
   guidetolerance="10"
   inkscape:pageopacity="0"
   inkscape:pageshadow="2"
   inkscape:window-width="1920"
   inkscape:window-height="1016"
   id="namedview31"
   showgrid="false"
   inkscape:zoom="1.0907007"
   inkscape:cx="121.6884"
   inkscape:cy="125.86518"
   inkscape:window-x="0"
   inkscape:window-y="27"
   inkscape:window-maximized="1"
   inkscape:current-layer="Layer_1"
   units="mm"
   showborder="true"
   fit-margin-top="0"
   fit-margin-left="0"
   fit-margin-right="0"
   fit-margin-bottom="0" />
<g
   id="g828"
   transform="translate(-2.4353637e-6,46.37289)"><g
     transform="translate(-120.60861,-220.26017)"
     id="g3">
	<path
   style="fill:#f89939"
   inkscape:connector-curvature="0"
   id="path5"
   d="m 333.32,347.348 c 33.869,-33.867 39.498,-83.146 12.572,-110.07 -26.922,-26.921 -76.199,-21.293 -110.066,12.572 -33.867,33.866 -24.07,98.568 -12.57,110.07 9.293,9.293 76.199,21.293 110.064,-12.572 z" />
	<path
   style="fill:#3499cd"
   inkscape:connector-curvature="0"
   id="path7"
   d="m 194.35,298.411 c -19.648,-19.648 -48.242,-22.919 -63.867,-7.295 -15.621,15.622 -12.355,44.22 7.297,63.865 19.652,19.654 57.195,13.969 63.863,7.295 5.396,-5.387 12.361,-44.215 -7.293,-63.865 z" />
</g></g>









<g
   transform="translate(-2.4353637e-6,46.37289)"
   id="g844"><g
     id="g842"
     transform="translate(-120.60861,-220.26017)">
	<path
   d="m 333.32,347.348 c 33.869,-33.867 39.498,-83.146 12.572,-110.07 -26.922,-26.921 -76.199,-21.293 -110.066,12.572 -33.867,33.866 -24.07,98.568 -12.57,110.07 9.293,9.293 76.199,21.293 110.064,-12.572 z"
   id="path838"
   inkscape:connector-curvature="0"
   style="fill:#f89939" />
	<path
   d="m 194.35,298.411 c -19.648,-19.648 -48.242,-22.919 -63.867,-7.295 -15.621,15.622 -12.355,44.22 7.297,63.865 19.652,19.654 57.195,13.969 63.863,7.295 5.396,-5.387 12.361,-44.215 -7.293,-63.865 z"
   id="path840"
   inkscape:connector-curvature="0"
   style="fill:#3499cd" />
</g></g></svg>