<?xml version="1.0" encoding="UTF-8" standalone="no"?>
<!-- Generator: Adobe Illustrator 23.0.2, SVG Export Plug-In . SVG Version: 6.00 Build 0)  -->

<svg
   xmlns:dc="http://purl.org/dc/elements/1.1/"
   xmlns:cc="http://creativecommons.org/ns#"
   xmlns:rdf="http://www.w3.org/1999/02/22-rdf-syntax-ns#"
   xmlns:svg="http://www.w3.org/2000/svg"
   xmlns="http://www.w3.org/2000/svg"
   xmlns:sodipodi="http://sodipodi.sourceforge.net/DTD/sodipodi-0.dtd"
   xmlns:inkscape="http://www.inkscape.org/namespaces/inkscape"
   version="1.1"
   id="Layer_1"
   x="0px"
   y="0px"
   viewBox="0 0 118.02718 118.02718"
   xml:space="preserve"
   sodipodi:docname="svelte.svg"
   width="118.02718"
   height="118.02718"
   inkscape:export-filename="/home/gabriel/Pictures/svelte.png"
   inkscape:export-xdpi="52.055805"
   inkscape:export-ydpi="52.055805"
   inkscape:version="0.92.5 (2060ec1f9f, 2020-04-08)"><metadata
   id="metadata1212"><rdf:RDF><cc:Work
       rdf:about=""><dc:format>image/svg+xml</dc:format><dc:type
         rdf:resource="http://purl.org/dc/dcmitype/StillImage" /></cc:Work></rdf:RDF></metadata><defs
   id="defs1210" /><sodipodi:namedview
   pagecolor="#ffffff"
   bordercolor="#666666"
   borderopacity="1"
   objecttolerance="10"
   gridtolerance="10"
   guidetolerance="10"
   inkscape:pageopacity="0"
   inkscape:pageshadow="2"
   inkscape:window-width="1920"
   inkscape:window-height="1016"
   id="namedview1208"
   showgrid="false"
   inkscape:zoom="4"
   inkscape:cx="68.995794"
   inkscape:cy="58.012457"
   inkscape:window-x="0"
   inkscape:window-y="27"
   inkscape:window-maximized="1"
   inkscape:current-layer="Layer_1" />
<style
   type="text/css"
   id="style1201">
	.st0{fill:#FF3E00;}
	.st1{fill:#FFFFFF;}
</style>
<path
   class="st0"
   d="m 85.362331,32.279188 c -6.714403,-9.6712 -20.081603,-12.5048 -29.691203,-6.4064 l -16.94,10.8416 c -4.62,2.8952 -7.8232,7.6384 -8.7472,12.9976 -0.8008,4.4968 -0.1232,9.1168 2.0328,13.1208 -1.4784,2.2176 -2.464,4.6816 -2.8952,7.2688 -0.9856,5.4824 0.308,11.1496 3.5112,15.646402 6.776,9.6712 20.0816,12.5048 29.6912,6.4064 l 16.94,-10.780002 c 4.62,-2.8952 7.823203,-7.6384 8.747203,-12.9976 0.8008,-4.4968 0.1232,-9.1168 -2.0328,-13.1208 1.4784,-2.2176 2.464,-4.6816 2.8952,-7.2688 1.0472,-5.544 -0.2464,-11.2112 -3.5112,-15.708"
   id="path1203"
   inkscape:connector-curvature="0"
   style="fill:#ff3e00;stroke-width:0.616" />
<path
   class="st1"
   d="m 53.997915,86.67199 c -5.4824,1.4168 -11.2112,-0.7392 -14.4144,-5.359202 -1.9712,-2.7104 -2.7104,-6.0984 -2.156,-9.4248 0.1232,-0.5544 0.2464,-1.0472 0.3696,-1.6016 l 0.308,-0.9856 0.8624,0.616 c 2.0328,1.4784 4.2504,2.5872 6.6528,3.3264 l 0.616,0.1848 -0.0616,0.616 c -0.0616,0.8624 0.1848,1.7864 0.6776,2.5256 0.9856,1.4168 2.7104,2.0944 4.3736,1.6632 0.3696,-0.1232 0.7392,-0.2464 1.0472,-0.4312 l 16.8784,-10.78 c 0.8624,-0.5544 1.4168,-1.3552 1.6016,-2.3408 0.1848,-0.9856 -0.0616,-2.0328 -0.616,-2.8336 -0.9856,-1.4168 -2.7104,-2.0328 -4.3736,-1.6016 -0.3696,0.1232 -0.7392,0.2464 -1.0472,0.4312 l -6.468,4.1272 c -1.0472,0.6776 -2.2176,1.1704 -3.4496,1.4784 -5.4824,1.4168 -11.2112,-0.7392 -14.4144,-5.3592 -1.9096,-2.7104 -2.7104,-6.0984 -2.0944,-9.4248 0.5544,-3.2032 2.5256,-6.0984 5.2976,-7.8232 l 16.94,-10.78 c 1.0472,-0.6776 2.2176,-1.1704 3.4496,-1.54 5.4824,-1.4168 11.2112,0.7392 14.4144,5.3592 1.9712,2.7104 2.7104,6.0984 2.156,9.4248 -0.1232,0.5544 -0.2464,1.0472 -0.4312,1.6016 l -0.308,0.9856 -0.8624,-0.616 c -2.0328,-1.4784 -4.2504,-2.5872 -6.6528,-3.3264 l -0.616,-0.1848 0.0616,-0.616 c 0.0616,-0.8624 -0.1848,-1.7864 -0.6776,-2.5256 -0.9856,-1.4168 -2.7104,-2.0328 -4.3736,-1.6016 -0.3696,0.1232 -0.7392,0.2464 -1.0472,0.4312 l -16.8784,10.78 c -0.8624,0.5544 -1.4168,1.3552 -1.6016,2.3408 -0.1848,0.9856 0.0616,2.0328 0.616,2.8336 0.9856,1.4168 2.7104,2.0328 4.3736,1.6016 0.3696,-0.1232 0.7392,-0.2464 1.0472,-0.4312 l 6.468,-4.1272 c 1.0472,-0.6776 2.2176,-1.1704 3.4496,-1.54 5.4824,-1.4168 11.2112,0.7392 14.4144,5.3592 1.9712,2.7104 2.7104,6.0984 2.156,9.4248 -0.5544,3.2032 -2.5256,6.0984 -5.2976,7.8232 l -16.94,10.780002 c -1.0472,0.6776 -2.2176,1.1704 -3.4496,1.54"
   id="path1205"
   inkscape:connector-curvature="0"
   style="fill:#ffffff;stroke-width:0.616" />
</svg>